#Comment line ignore any data following # character 
#Hierarchical Translation and Rotation (.htr) file 
[Header]	
#Header keywords are followed by a single value 
FileType HTR		#Single word string
DataType HTRS		#Translation followed by rotation and scale data
FileVersion 1		#integer
NumSegments 64		#integer
NumFrames 3		#integer
DataFrameRate 30		#integer, data frame rate in this file
EulerRotationOrder ZYX
CalibrationUnits mm
RotationUnits Degrees
GlobalAxisofGravity Y
BoneLengthAxis Y
ScaleFactor 1.00
[SegmentNames&Hierarchy]
#CHILD	PARENT
Pinger_Root GLOBAL
Pelvis Pinger_Root
L_Hip Pelvis
R_Hip Pelvis
Rear_Leg01 Pelvis
Spine1 Pelvis
L_Leg01 L_Hip
L_Leg02 L_Leg01
L_Leg03 L_Leg02
L_Foot L_Leg03
L_Toe1_01 L_Foot
L_Toe2_01 L_Foot
L_Toe3_01 L_Foot
planeAlignerLeft L_Foot
L_Toe1_02 L_Toe1_01
L_Toe1_03 L_Toe1_02
L_Toe2_02 L_Toe2_01
L_Toe2_03 L_Toe2_02
L_Toe3_02 L_Toe3_01
L_Toe3_03 L_Toe3_02
planeLockWeightLeft planeAlignerLeft
R_Leg01 R_Hip
R_Leg02 R_Leg01
R_Leg03 R_Leg02
R_Foot R_Leg03
planeAlignerRight R_Foot
R_Toe1_01 R_Foot
R_Toe2_01 R_Foot
R_Toe3_01 R_Foot
planeLockWeightRight planeAlignerRight
R_Toe1_02 R_Toe1_01
R_Toe1_03 R_Toe1_02
R_Toe2_02 R_Toe2_01
R_Toe2_03 R_Toe2_02
R_Toe3_02 R_Toe3_01
R_Toe3_03 R_Toe3_02
Rear_Leg02 Rear_Leg01
Rear_Leg03 Rear_Leg02
Rear_Leg04 Rear_Leg03
Rear_Foot Rear_Leg04
planeAlignerCenter Rear_Foot
Rear_Toe1_01 Rear_Foot
Rear_Toe2_01 Rear_Foot
Rear_Toe3_01 Rear_Foot
planeLockWeightCenter planeAlignerCenter
Rear_Toe1_02 Rear_Toe1_01
Rear_Toe1_03 Rear_Toe1_02
Rear_Toe2_02 Rear_Toe2_01
Rear_Toe2_03 Rear_Toe2_02
Rear_Toe3_02 Rear_Toe3_01
Rear_Toe3_03 Rear_Toe3_02
Back_Bone Spine1
Head Spine1
Motor_Bone Back_Bone
Ping_Mechanism Back_Bone
BN_LookIK Head
bottomMouth Head
L_Mouth01 Head
L_mouthFront Head
mouthGun Head
R_Mouth01 Head
R_mouthFront Head
TopMouth Head
weapon_bone Head
[BasePosition]
#SegmentName Tx, Ty, Tz, Rx, Ry, Rz, BoneLength
Pinger_Root 0.000000 0.000000 0.000000 -90.000000 0.000000 0.000000 10.000000 
Pelvis 0.000000 0.000000 0.000000 0.000000 0.000000 0.000000 10.000000 
L_Hip 0.000000 0.000000 0.000000 0.000000 0.000000 0.000000 10.000000 
R_Hip 0.000000 0.000000 0.000000 0.000000 0.000000 0.000000 10.000000 
Rear_Leg01 0.000000 0.000000 0.000000 0.000000 0.000000 0.000000 10.000000 
Spine1 0.000000 0.000000 0.000000 0.000000 0.000000 0.000000 10.000000 
L_Leg01 0.000000 0.000000 0.000000 0.000000 0.000000 0.000000 10.000000 
L_Leg02 0.000000 0.000000 0.000000 0.000000 0.000000 0.000000 10.000000 
L_Leg03 0.000000 0.000000 0.000000 0.000000 0.000000 0.000000 10.000000 
L_Foot 0.000000 0.000000 0.000000 0.000000 0.000000 0.000000 10.000000 
L_Toe1_01 0.000000 0.000000 0.000000 0.000000 0.000000 0.000000 10.000000 
L_Toe2_01 0.000000 0.000000 0.000000 0.000000 0.000000 0.000000 10.000000 
L_Toe3_01 0.000000 0.000000 0.000000 0.000000 0.000000 0.000000 10.000000 
planeAlignerLeft 0.000000 0.000000 0.000000 0.000000 0.000000 0.000000 10.000000 
L_Toe1_02 0.000000 0.000000 0.000000 0.000000 0.000000 0.000000 10.000000 
L_Toe1_03 0.000000 0.000000 0.000000 0.000000 0.000000 0.000000 10.000000 
L_Toe2_02 0.000000 0.000000 0.000000 0.000000 0.000000 0.000000 10.000000 
L_Toe2_03 0.000000 0.000000 0.000000 0.000000 0.000000 0.000000 10.000000 
L_Toe3_02 0.000000 0.000000 0.000000 0.000000 0.000000 0.000000 10.000000 
L_Toe3_03 0.000000 0.000000 0.000000 0.000000 0.000000 0.000000 10.000000 
planeLockWeightLeft 0.000000 0.000000 0.000000 0.000000 0.000000 0.000000 10.000000 
R_Leg01 0.000000 0.000000 0.000000 0.000000 0.000000 0.000000 10.000000 
R_Leg02 0.000000 0.000000 0.000000 0.000000 0.000000 0.000000 10.000000 
R_Leg03 0.000000 0.000000 0.000000 0.000000 0.000000 0.000000 10.000000 
R_Foot 0.000000 0.000000 0.000000 0.000000 0.000000 0.000000 10.000000 
planeAlignerRight 0.000000 0.000000 0.000000 0.000000 0.000000 0.000000 10.000000 
R_Toe1_01 0.000000 0.000000 0.000000 0.000000 0.000000 0.000000 10.000000 
R_Toe2_01 0.000000 0.000000 0.000000 0.000000 0.000000 0.000000 10.000000 
R_Toe3_01 0.000000 0.000000 0.000000 0.000000 0.000000 0.000000 10.000000 
planeLockWeightRight 0.000000 0.000000 0.000000 0.000000 0.000000 0.000000 10.000000 
R_Toe1_02 0.000000 0.000000 0.000000 0.000000 0.000000 0.000000 10.000000 
R_Toe1_03 0.000000 0.000000 0.000000 0.000000 0.000000 0.000000 10.000000 
R_Toe2_02 0.000000 0.000000 0.000000 0.000000 0.000000 0.000000 10.000000 
R_Toe2_03 0.000000 0.000000 0.000000 0.000000 0.000000 0.000000 10.000000 
R_Toe3_02 0.000000 0.000000 0.000000 0.000000 0.000000 0.000000 10.000000 
R_Toe3_03 0.000000 0.000000 0.000000 0.000000 0.000000 0.000000 10.000000 
Rear_Leg02 0.000000 0.000000 0.000000 0.000000 0.000000 0.000000 10.000000 
Rear_Leg03 0.000000 0.000000 0.000000 0.000000 0.000000 0.000000 10.000000 
Rear_Leg04 0.000000 0.000000 0.000000 0.000000 0.000000 0.000000 10.000000 
Rear_Foot 0.000000 0.000000 0.000000 0.000000 0.000000 0.000000 10.000000 
planeAlignerCenter 0.000000 0.000000 0.000000 0.000000 0.000000 0.000000 10.000000 
Rear_Toe1_01 0.000000 0.000000 0.000000 0.000000 0.000000 0.000000 10.000000 
Rear_Toe2_01 0.000000 0.000000 0.000000 0.000000 0.000000 0.000000 10.000000 
Rear_Toe3_01 0.000000 0.000000 0.000000 0.000000 0.000000 0.000000 10.000000 
planeLockWeightCenter 0.000000 0.000000 0.000000 0.000000 0.000000 0.000000 10.000000 
Rear_Toe1_02 0.000000 0.000000 0.000000 0.000000 0.000000 0.000000 10.000000 
Rear_Toe1_03 0.000000 0.000000 0.000000 0.000000 0.000000 0.000000 10.000000 
Rear_Toe2_02 0.000000 0.000000 0.000000 0.000000 0.000000 0.000000 10.000000 
Rear_Toe2_03 0.000000 0.000000 0.000000 0.000000 0.000000 0.000000 10.000000 
Rear_Toe3_02 0.000000 0.000000 0.000000 0.000000 0.000000 0.000000 10.000000 
Rear_Toe3_03 0.000000 0.000000 0.000000 0.000000 0.000000 0.000000 10.000000 
Back_Bone 0.000000 0.000000 0.000000 0.000000 0.000000 0.000000 10.000000 
Head 0.000000 0.000000 0.000000 0.000000 0.000000 0.000000 10.000000 
Motor_Bone 0.000000 0.000000 0.000000 0.000000 0.000000 0.000000 10.000000 
Ping_Mechanism 0.000000 0.000000 0.000000 0.000000 0.000000 0.000000 10.000000 
BN_LookIK 0.000000 0.000000 0.000000 0.000000 0.000000 0.000000 10.000000 
bottomMouth 0.000000 0.000000 0.000000 0.000000 0.000000 0.000000 10.000000 
L_Mouth01 0.000000 0.000000 0.000000 0.000000 0.000000 0.000000 10.000000 
L_mouthFront 0.000000 0.000000 0.000000 0.000000 0.000000 0.000000 10.000000 
mouthGun 0.000000 0.000000 0.000000 0.000000 0.000000 0.000000 10.000000 
R_Mouth01 0.000000 0.000000 0.000000 0.000000 0.000000 0.000000 10.000000 
R_mouthFront 0.000000 0.000000 0.000000 0.000000 0.000000 0.000000 10.000000 
TopMouth 0.000000 0.000000 0.000000 0.000000 0.000000 0.000000 10.000000 
weapon_bone 0.000000 0.000000 0.000000 0.000000 0.000000 0.000000 10.000000 
#Beginning of Data. Separated by tabs
#Fr	Tx	Ty	Tz	Rx	Ry	Rz	SF
[Pinger_Root]
33 0.000000 0.000000 0.000000 -0.000075 -0.000000 -0.000020 0.000000
34 0.000000 0.000000 0.000000 -0.000075 -0.000000 -0.000020 0.000000
35 0.000000 0.000000 0.000000 -0.000075 -0.000000 -0.000020 0.000000
[Pelvis]
33 57.754505 895.342712 4441.427246 -102.874435 -85.437561 95.229637 4531.142090
34 59.805477 908.024353 4453.646484 -100.928856 -85.826271 93.306099 4545.663086
35 62.347202 915.002625 4457.020996 -100.651405 -85.899315 93.032249 4550.401855
[L_Hip]
33 5.766392 125.831482 872.656799 160.158691 -45.484905 122.312202 881.701050
34 5.766392 125.831482 872.656799 160.158691 -45.484905 122.312202 881.701050
35 5.766392 125.831482 872.656799 160.158691 -45.484905 122.312202 881.701050
[R_Hip]
33 5.765438 125.836372 -872.654907 39.261227 50.864796 126.596100 881.699829
34 5.765438 125.836372 -872.654907 38.368244 50.058182 125.926872 881.699829
35 5.765438 125.836372 -872.654907 38.087841 49.812687 125.703735 881.699829
[Rear_Leg01]
33 -192.298416 -925.602966 -0.001907 169.660187 2.249233 -158.378326 945.367432
34 -192.298416 -925.602966 -0.001907 169.699524 2.147981 -159.486282 945.367432
35 -192.298416 -925.602966 -0.001907 169.703781 2.063384 -159.897827 945.367432
[Spine1]
33 290.604584 5.007505 0.000477 7.402865 -0.243947 17.457779 290.647736
34 290.604584 5.007505 0.000477 7.296150 -0.540508 18.734297 290.647736
35 290.604584 5.007505 0.000477 7.265745 -0.619986 19.266815 290.647736
[L_Leg01]
33 761.932007 -0.002384 -0.069261 22.168943 -16.256062 -7.591382 761.932068
34 761.932007 -0.002384 -0.069261 22.657597 -15.807600 -9.392831 761.932068
35 761.932007 -0.002384 -0.069261 22.882278 -15.593885 -10.045021 761.932068
[L_Leg02]
33 1441.140503 -0.000954 -0.000715 2.576304 -0.199869 -129.495850 1441.140503
34 1441.140503 -0.000954 -0.000715 2.484756 -0.187399 -128.125092 1441.140503
35 1441.140503 -0.000954 -0.000715 2.459550 -0.179544 -127.679131 1441.140503
[L_Leg03]
33 1686.963989 -0.000715 -0.000954 -0.027951 0.011216 117.705925 1686.963989
34 1686.963989 -0.000715 -0.000954 -0.028451 0.012092 117.821396 1686.963989
35 1686.963989 -0.000715 -0.000954 -0.028949 0.012969 117.936852 1686.963989
[L_Foot]
33 3041.570068 -30.715107 11.297464 2.175251 13.042253 55.561874 3041.746094
34 3041.570068 -30.715107 11.297464 2.192861 13.124038 55.311962 3041.746094
35 3041.570068 -30.715107 11.297464 2.115245 13.115744 55.354992 3041.746094
[L_Toe1_01]
33 -188.216690 -224.732346 -21.137953 93.724411 -6.888628 -172.003113 293.899567
34 -188.216690 -224.732346 -21.137953 93.718208 -6.866082 -171.966980 293.899567
35 -188.216690 -224.732346 -21.137953 93.718430 -6.865188 -171.967834 293.899567
[L_Toe2_01]
33 200.746536 -219.926590 148.838394 -90.011200 -26.355242 -52.675674 332.896027
34 200.746536 -219.926590 148.838394 -90.023987 -26.311703 -52.677628 332.896027
35 200.746536 -219.926590 148.838394 -90.023987 -26.311703 -52.677628 332.896027
[L_Toe3_01]
33 188.832520 -219.859131 -191.078659 -99.788055 13.839008 -67.673027 347.140900
34 188.832520 -219.859131 -191.078659 -99.788063 13.839012 -67.673035 347.140900
35 188.832520 -219.859131 -191.078659 -99.788055 13.839005 -67.673027 347.140900
[planeAlignerLeft]
33 0.812531 -811.448792 -0.314951 0.000000 -90.000000 -90.001900 811.449280
34 0.812531 -811.448792 -0.314951 0.000000 -90.000000 -90.001900 811.449280
35 0.812531 -811.448792 -0.314951 0.000000 -90.000000 -90.001900 811.449280
[L_Toe1_02]
33 413.761139 0.000477 0.000000 0.001384 -26.012932 0.001384 413.761139
34 413.761139 0.000477 0.000000 0.001384 -26.012934 0.001384 413.761139
35 413.761139 0.000477 0.000000 0.001384 -26.012932 0.001384 413.761139
[L_Toe1_03]
33 464.317322 0.000358 -0.000089 0.003734 53.358189 0.003734 464.317322
34 464.317322 0.000358 -0.000089 0.003733 53.357246 0.003733 464.317322
35 464.317322 0.000358 -0.000089 0.003733 53.356335 0.003733 464.317322
[L_Toe2_02]
33 342.235809 -0.000477 0.000238 0.001188 -72.402016 0.001188 342.235809
34 342.235809 -0.000477 0.000238 0.001188 -72.402016 0.001188 342.235809
35 342.235809 -0.000477 0.000238 0.001188 -72.402016 0.001188 342.235809
[L_Toe2_03]
33 420.210846 -0.000715 0.000000 0.029090 85.375511 0.029090 420.210846
34 420.210846 -0.000715 0.000000 0.029090 85.375511 0.029090 420.210846
35 420.210846 -0.000715 0.000000 0.029090 85.375511 0.029090 420.210846
[L_Toe3_02]
33 329.270111 0.000954 0.000000 0.001178 -80.519211 0.001178 329.270111
34 329.270111 0.000954 0.000000 0.001178 -80.511444 0.001178 329.270111
35 329.270111 0.000954 0.000000 0.001178 -80.503670 0.001178 329.270111
[L_Toe3_03]
33 439.137451 -0.001907 0.000954 -179.995956 78.633667 -179.992432 439.137451
34 439.137451 -0.001907 0.000954 -179.995956 78.628105 -179.992432 439.137451
35 439.137451 -0.001907 0.000954 -179.995956 78.622513 -179.992447 439.137451
[planeLockWeightLeft]
33 -0.000954 0.000238 -0.000305 -0.011826 -0.004376 0.005620 0.001029
34 -0.000954 0.000238 -0.000305 -0.011826 -0.004376 0.005620 0.001029
35 -0.000954 0.000238 -0.000305 -0.011826 -0.004376 0.005620 0.001029
[R_Leg01]
33 761.455627 -0.001907 -0.000358 119.174629 -5.602332 38.617661 761.455688
34 761.455627 -0.001907 -0.000358 119.785660 -5.627691 37.544418 761.455688
35 761.455627 -0.001907 -0.000358 119.997849 -6.253882 36.846146 761.455688
[R_Leg02]
33 1441.140625 0.000000 -0.000238 -1.125406 -0.120396 -109.414818 1441.140625
34 1441.140625 0.000000 -0.000238 -1.155700 -0.160048 -112.755333 1441.140625
35 1441.140625 0.000000 -0.000238 -1.220006 -0.169748 -115.070358 1441.140625
[R_Leg03]
33 1686.963989 0.000954 0.001431 0.073949 -0.038655 130.750397 1686.963989
34 1686.963989 0.000954 0.001431 0.075860 -0.043413 131.147232 1686.963989
35 1686.963989 0.000954 0.001431 0.075832 -0.043462 131.220551 1686.963989
[R_Foot]
33 3041.560059 -30.531288 -11.204481 -0.824927 -24.721613 51.180004 3041.734131
34 3041.560059 -30.531288 -11.204481 -0.530008 -24.752468 52.852142 3041.734131
35 3041.560059 -30.531288 -11.204481 -0.454064 -24.748434 53.950890 3041.734131
[planeAlignerRight]
33 -0.635147 -812.270569 -0.364304 0.000000 -89.960434 -90.005180 812.270874
34 -0.635147 -812.270569 -0.364304 0.000000 -89.960434 -90.005180 812.270874
35 -0.635147 -812.270569 -0.364304 0.000000 -89.960434 -90.005180 812.270874
[R_Toe1_01]
33 -188.383347 -224.864899 21.052242 76.964905 -1.522505 -173.707443 294.101532
34 -188.383347 -224.864899 21.052242 76.826637 -0.734760 -173.023880 294.101532
35 -188.383347 -224.864899 21.052242 76.763535 -0.414596 -172.728714 294.101532
[R_Toe2_01]
33 200.637817 -220.002121 -148.787384 -90.355949 32.821278 -56.693722 332.857574
34 200.637817 -220.002121 -148.787384 -91.393089 32.860630 -58.551857 332.857574
35 200.637817 -220.002121 -148.787384 -91.743256 32.873833 -59.182163 332.857574
[R_Toe3_01]
33 188.606735 -220.092957 191.126343 -72.633957 -10.580678 -72.508049 347.192566
34 188.606735 -220.092957 191.126343 -73.058037 -9.047718 -73.402824 347.192566
35 188.606735 -220.092957 191.126343 -73.225998 -8.456857 -73.756157 347.192566
[planeLockWeightRight]
33 -0.000477 0.000000 0.000000 -0.011823 -0.004379 -0.000027 0.000477
34 -0.000477 0.000000 0.000000 -0.011823 -0.004379 -0.000027 0.000477
35 -0.000477 0.000000 0.000000 -0.011823 -0.004379 -0.000027 0.000477
[R_Toe1_02]
33 413.762085 0.000477 -0.000119 0.001391 -25.012897 0.001391 413.762085
34 413.762085 0.000477 -0.000119 0.001393 -24.755676 0.001393 413.762085
35 413.762085 0.000477 -0.000119 0.001394 -24.731632 0.001394 413.762085
[R_Toe1_03]
33 464.317810 0.000000 0.001088 0.005997 67.427261 0.005997 464.317810
34 464.317810 0.000000 0.001088 0.006447 69.022202 0.006447 464.317810
35 464.317810 0.000000 0.001088 0.006625 69.593361 0.006625 464.317810
[R_Toe2_02]
33 342.234741 -0.000954 0.000238 -0.000583 -71.346367 -0.000583 342.234741
34 342.234741 -0.000954 0.000238 0.001195 -68.496819 0.001195 342.234741
35 342.234741 -0.000954 0.000238 0.001197 -67.215317 0.001197 342.234741
[R_Toe2_03]
33 420.210846 0.000715 -0.000268 0.018417 82.692741 0.018417 420.210846
34 420.210846 0.000715 -0.000268 0.009821 76.273010 0.009821 420.210846
35 420.210846 0.000715 -0.000268 0.008231 73.605896 0.008231 420.210846
[R_Toe3_02]
33 329.270355 -0.000477 -0.000954 0.001182 -76.733826 0.001182 329.270355
34 329.270355 -0.000477 -0.000954 0.001184 -75.166275 0.001184 329.270355
35 329.270355 -0.000477 -0.000954 0.001184 -74.518616 0.001184 329.270355
[R_Toe3_03]
33 439.137939 0.000238 0.001431 -0.061507 88.897301 -0.058010 439.137939
34 439.137939 0.000238 0.001431 -0.014802 84.952362 -0.011302 439.137939
35 439.137939 0.000238 0.001431 -0.011587 83.300308 -0.008085 439.137939
[Rear_Leg02]
33 1162.777710 -0.029802 0.005960 0.722012 -3.003291 -121.745941 1162.777710
34 1162.777710 -0.029802 0.005960 0.621137 -2.954538 -122.510239 1162.777710
35 1162.777710 -0.029802 0.005960 0.586746 -2.925086 -122.769142 1162.777710
[Rear_Leg03]
33 607.192505 -0.013351 -0.073195 0.010640 -0.004789 64.818901 607.192505
34 607.192505 -0.013351 -0.073195 0.006475 -0.002111 64.327484 607.192505
35 607.192505 -0.013351 -0.073195 0.006479 -0.002099 64.117294 607.192505
[Rear_Leg04]
33 995.874512 -0.020504 -0.011921 -0.040650 -0.014800 59.260887 995.874573
34 995.874512 -0.020504 -0.011921 -0.040524 -0.015144 58.290276 995.874573
35 995.874512 -0.020504 -0.011921 -0.040470 -0.015286 57.888615 995.874573
[Rear_Foot]
33 3096.176270 -0.067472 -0.041425 -140.992050 85.828949 50.607979 3096.176270
34 3096.176270 -0.067472 -0.041425 -141.727798 85.878212 50.605553 3096.176270
35 3096.176270 -0.067472 -0.041425 -142.410736 85.874123 50.228867 3096.176270
[planeAlignerCenter]
33 0.350077 0.966311 -838.790894 0.000009 0.000003 -179.999985 838.791565
34 0.350077 0.966311 -838.790894 0.000009 0.000003 -179.999985 838.791565
35 0.350077 0.966311 -838.790894 0.000009 0.000003 -179.999985 838.791565
[Rear_Toe1_01]
33 0.653352 83.966492 -371.173737 0.288091 41.914127 90.413170 380.553192
34 0.653352 83.966492 -371.173737 0.288091 41.914127 90.413170 380.553192
35 0.653352 83.966492 -371.173737 0.288091 41.914127 90.413170 380.553192
[Rear_Toe2_01]
33 178.200760 -294.826019 -362.060547 -7.196267 34.406261 -66.271294 499.765686
34 178.200760 -294.826019 -362.060547 -7.196267 34.406261 -66.271294 499.765686
35 178.200760 -294.826019 -362.060547 -7.196267 34.406261 -66.271294 499.765686
[Rear_Toe3_01]
33 -153.359680 -308.780914 -362.060852 3.289418 33.518005 -112.540970 499.952881
34 -153.359680 -308.780914 -362.060852 3.289418 33.518005 -112.540970 499.952881
35 -153.359680 -308.780914 -362.060852 3.289418 33.518005 -112.540970 499.952881
[planeLockWeightCenter]
33 -0.000062 0.000238 0.000000 -0.011814 -0.004373 -0.000015 0.000246
34 -0.000062 0.000238 0.000000 -0.011814 -0.004373 -0.000015 0.000246
35 -0.000062 0.000238 0.000000 -0.011814 -0.004373 -0.000015 0.000246
[Rear_Toe1_02]
33 379.707825 0.194073 0.000477 -0.000242 -31.678349 0.006934 379.707855
34 379.707825 0.194073 0.000477 -0.000242 -31.678040 0.006934 379.707855
35 379.707825 0.194073 0.000477 -0.000242 -31.677713 0.006934 379.707855
[Rear_Toe1_03]
33 500.129700 0.165701 0.000119 -0.000103 51.904198 0.007295 500.129761
34 500.129700 0.165701 0.000119 -0.000103 51.903854 0.007295 500.129761
35 500.129700 0.165701 0.000119 -0.000103 51.903511 0.007295 500.129761
[Rear_Toe2_02]
33 340.494507 0.000238 -0.000954 0.001192 -69.854523 0.001192 340.494507
34 340.494507 0.000238 -0.000954 0.001192 -69.854523 0.001192 340.494507
35 340.494507 0.000238 -0.000954 0.001192 -69.854523 0.001192 340.494507
[Rear_Toe2_03]
33 433.103577 0.000000 0.000238 0.006696 69.810326 0.006696 433.103546
34 433.103577 0.000000 0.000238 0.006696 69.810326 0.006696 433.103546
35 433.103577 0.000000 0.000238 0.006696 69.810341 0.006696 433.103546
[Rear_Toe3_02]
33 340.494141 -0.000358 -0.000477 0.008288 -67.274704 -0.009460 340.494171
34 340.494141 -0.000358 -0.000477 0.008288 -67.274704 -0.009460 340.494171
35 340.494141 -0.000358 -0.000477 0.008288 -67.274704 -0.009460 340.494171
[Rear_Toe3_03]
33 433.103577 0.001431 -0.000238 -0.000972 65.958984 -0.004547 433.103546
34 433.103577 0.001431 -0.000238 -0.000972 65.959007 -0.004547 433.103546
35 433.103577 0.001431 -0.000238 -0.000972 65.959007 -0.004547 433.103546
[Back_Bone]
33 1312.175781 -701.934692 0.000954 0.633749 1.715992 -86.701180 1488.125488
34 1312.175781 -701.934692 0.000954 1.227594 0.544976 -86.433487 1488.125488
35 1312.175781 -701.934692 0.000954 1.477892 0.036738 -86.155678 1488.125488
[Head]
33 1406.159424 809.709290 0.001431 -0.314444 -0.177737 8.714999 1622.625488
34 1406.159424 809.709290 0.001431 -0.073592 -1.069068 6.995252 1622.625488
35 1406.159424 809.709290 0.001431 0.038889 -1.476591 6.330441 1622.625488
[Motor_Bone]
33 1158.364380 -417.834747 0.000477 -0.096781 0.149365 -97.041222 1231.419434
34 1158.364380 -417.834747 0.000477 -0.097369 -0.599447 -96.151627 1231.419434
35 1158.364380 -417.834747 0.000477 -0.097970 -0.262923 -99.272659 1231.419434
[Ping_Mechanism]
33 1236.601563 -441.870728 -0.943807 0.000103 -0.000053 82.120995 1313.177124
34 1235.214844 -441.730957 -0.627683 0.000103 -0.000053 82.120995 1311.823975
35 1233.828125 -441.591187 -0.311562 0.000103 -0.000053 82.120995 1310.471191
[BN_LookIK]
33 193.241119 1380.371704 -0.002861 0.000000 89.965736 -31.038179 1393.832153
34 193.241119 1380.371704 -0.002861 0.000000 89.965736 -31.038179 1393.832153
35 193.241119 1380.371704 -0.002861 0.000000 89.965736 -31.038179 1393.832153
[bottomMouth]
33 -435.092926 615.759399 -0.000954 -0.000022 0.000016 73.527184 753.966492
34 -435.092926 615.759399 -0.000954 -0.000022 0.000016 73.527184 753.966492
35 -435.092926 615.759399 -0.000954 -0.000022 0.000016 73.527184 753.966492
[L_Mouth01]
33 554.440979 7.658243 838.222046 150.204178 23.759130 109.605339 1005.027161
34 554.440979 7.658243 838.222046 150.204178 23.759130 109.605339 1005.027161
35 554.440979 7.658243 838.222046 150.204178 23.759130 109.605339 1005.027161
[L_mouthFront]
33 551.629089 934.514771 339.150421 0.000081 2.804060 79.119301 1136.941284
34 551.629089 934.514771 339.150421 0.000081 2.804060 79.119301 1136.941284
35 551.629089 934.514771 339.150421 0.000081 2.804060 79.119301 1136.941284
[mouthGun]
33 55.332661 1627.420898 0.000000 0.000023 0.000009 -11.038128 1628.361328
34 55.332661 1627.420898 0.000000 0.000023 0.000009 -11.038128 1628.361328
35 55.332661 1627.420898 0.000000 0.000023 0.000009 -11.038128 1628.361328
[R_Mouth01]
33 554.442383 7.659197 -838.223938 29.795891 -23.759109 109.605331 1005.029541
34 554.442383 7.659197 -838.223938 29.795891 -23.759109 109.605331 1005.029541
35 554.442383 7.659197 -838.223938 29.795891 -23.759109 109.605331 1005.029541
[R_mouthFront]
33 551.629089 934.514282 -339.151367 0.000029 -2.803930 79.119133 1136.941162
34 551.629089 934.514282 -339.151367 0.000029 -2.803930 79.119133 1136.941162
35 551.629089 934.514282 -339.151367 0.000029 -2.803930 79.119133 1136.941162
[TopMouth]
33 461.269867 -56.106091 -0.008583 -0.000059 -0.000268 92.025169 464.669525
34 461.269867 -56.106091 -0.008583 -0.000059 -0.000268 92.025169 464.669525
35 461.269867 -56.106091 -0.008583 -0.000059 -0.000268 92.025169 464.669525
[weapon_bone]
33 -987.239868 1448.372803 0.001431 0.000000 89.965736 -31.038221 1752.833740
34 -987.239868 1448.372803 0.001431 0.000000 89.965736 -31.038221 1752.833740
35 -987.239868 1448.372803 0.001431 0.000000 89.965736 -31.038221 1752.833740
